<svg width="38" height="38" viewBox="0 0 38 38" fill="none" xmlns="http://www.w3.org/2000/svg">
<path fill-rule="evenodd" clip-rule="evenodd" d="M11.442 0.776504C13.397 0.686504 14.0203 0.666504 19.0003 0.666504C23.9803 0.666504 24.6037 0.688171 26.557 0.776504C28.5103 0.864837 29.8437 1.1765 31.0103 1.62817C32.232 2.08984 33.3403 2.8115 34.257 3.74484C35.1903 4.65984 35.9103 5.7665 36.3703 6.98984C36.8237 8.1565 37.1337 9.48984 37.2237 11.4398C37.3137 13.3982 37.3337 14.0215 37.3337 18.9998C37.3337 23.9798 37.312 24.6032 37.2237 26.5582C37.1353 28.5082 36.8237 29.8415 36.3703 31.0082C35.9103 32.2317 35.1891 33.3402 34.257 34.2565C33.3403 35.1898 32.232 35.9098 31.0103 36.3698C29.8437 36.8232 28.5103 37.1332 26.5603 37.2232C24.6037 37.3132 23.9803 37.3332 19.0003 37.3332C14.0203 37.3332 13.397 37.3115 11.442 37.2232C9.49199 37.1348 8.15866 36.8232 6.99199 36.3698C5.76853 35.9098 4.66003 35.1886 3.74366 34.2565C2.81096 33.341 2.08918 32.233 1.62866 31.0098C1.17699 29.8432 0.866992 28.5098 0.776992 26.5598C0.686992 24.6015 0.666992 23.9782 0.666992 18.9998C0.666992 14.0198 0.688659 13.3965 0.776992 11.4432C0.865326 9.48984 1.17699 8.1565 1.62866 6.98984C2.08986 5.76664 2.81219 4.65869 3.74533 3.74317C4.66039 2.81067 5.76778 2.08891 6.99033 1.62817C8.15699 1.1765 9.49033 0.866504 11.4403 0.776504H11.442ZM26.4087 4.0765C24.4753 3.98817 23.8953 3.96984 19.0003 3.96984C14.1053 3.96984 13.5253 3.98817 11.592 4.0765C9.80366 4.15817 8.83366 4.4565 8.18699 4.70817C7.33199 5.0415 6.72033 5.4365 6.07866 6.07817C5.4704 6.66992 5.00229 7.39031 4.70866 8.1865C4.45699 8.83317 4.15866 9.80317 4.07699 11.5915C3.98866 13.5248 3.97033 14.1048 3.97033 18.9998C3.97033 23.8948 3.98866 24.4748 4.07699 26.4082C4.15866 28.1965 4.45699 29.1665 4.70866 29.8132C5.00199 30.6082 5.47033 31.3298 6.07866 31.9215C6.67033 32.5298 7.39199 32.9982 8.18699 33.2915C8.83366 33.5432 9.80366 33.8415 11.592 33.9232C13.5253 34.0115 14.1037 34.0298 19.0003 34.0298C23.897 34.0298 24.4753 34.0115 26.4087 33.9232C28.197 33.8415 29.167 33.5432 29.8137 33.2915C30.6687 32.9582 31.2803 32.5632 31.922 31.9215C32.5303 31.3298 32.9987 30.6082 33.292 29.8132C33.5437 29.1665 33.842 28.1965 33.9237 26.4082C34.012 24.4748 34.0303 23.8948 34.0303 18.9998C34.0303 14.1048 34.012 13.5248 33.9237 11.5915C33.842 9.80317 33.5437 8.83317 33.292 8.1865C32.9587 7.3315 32.5637 6.71984 31.922 6.07817C31.3302 5.46996 30.6098 5.00186 29.8137 4.70817C29.167 4.4565 28.197 4.15817 26.4087 4.0765ZM16.6587 24.6515C17.9664 25.1959 19.4226 25.2694 20.7785 24.8594C22.1345 24.4494 23.306 23.5814 24.093 22.4036C24.88 21.2258 25.2338 19.8113 25.0937 18.4017C24.9537 16.9921 24.3287 15.6748 23.3253 14.6748C22.6857 14.0356 21.9123 13.5462 21.0609 13.2417C20.2094 12.9373 19.301 12.8254 18.4012 12.9142C17.5013 13.003 16.6322 13.2901 15.8567 13.7551C15.0811 14.22 14.4182 14.8511 13.9158 15.6029C13.4134 16.3548 13.084 17.2087 12.9512 18.1031C12.8184 18.9976 12.8856 19.9103 13.1479 20.7757C13.4102 21.6411 13.8611 22.4375 14.4682 23.1077C15.0753 23.7779 15.8234 24.3051 16.6587 24.6515ZM12.337 12.3365C13.212 11.4615 14.2509 10.7673 15.3942 10.2938C16.5375 9.8202 17.7628 9.57646 19.0003 9.57646C20.2378 9.57646 21.4632 9.8202 22.6065 10.2938C23.7498 10.7673 24.7886 11.4615 25.6637 12.3365C26.5387 13.2115 27.2328 14.2504 27.7064 15.3937C28.18 16.537 28.4237 17.7623 28.4237 18.9998C28.4237 20.2373 28.18 21.4627 27.7064 22.606C27.2328 23.7493 26.5387 24.7881 25.6637 25.6632C23.8964 27.4304 21.4996 28.4232 19.0003 28.4232C16.5011 28.4232 14.1042 27.4304 12.337 25.6632C10.5698 23.8959 9.57695 21.4991 9.57695 18.9998C9.57695 16.5006 10.5698 14.1037 12.337 12.3365ZM30.5137 10.9798C30.7305 10.7753 30.9041 10.5293 31.0242 10.2565C31.1442 9.98362 31.2083 9.68945 31.2127 9.39139C31.217 9.09332 31.1615 8.79742 31.0495 8.52119C30.9374 8.24496 30.771 7.99402 30.5603 7.78324C30.3495 7.57245 30.0985 7.4061 29.8223 7.29403C29.5461 7.18197 29.2502 7.12646 28.9521 7.13081C28.654 7.13515 28.3599 7.19926 28.087 7.31933C27.8142 7.4394 27.5682 7.613 27.3637 7.82984C26.9658 8.25155 26.748 8.81171 26.7565 9.39139C26.7649 9.97107 26.999 10.5246 27.4089 10.9346C27.8189 11.3445 28.3724 11.5786 28.9521 11.587C29.5318 11.5955 30.0919 11.3777 30.5137 10.9798Z" fill="#1E1E1E"/>
</svg>
