<svg width="4em"  version="1.1" viewBox="0 0 752 752" xmlns="http://www.w3.org/2000/svg">
        <defs>
         <clipPath id="b">
          <path d="m228 139.21h252v473.58h-252z"/>
         </clipPath>
         <clipPath id="a">
          <path d="m290 139.21h127v29.789h-127z"/>
         </clipPath>
        </defs>
        <rect width="752" height="752" fill="#a9f8fb"/>
        <g clip-path="url(#b)">
         <path d="m439.86 612.79h-172.04c-10.543 0-20.66-4.1836-28.121-11.637-7.4648-7.4492-11.668-17.555-11.688-28.102v-394.04c0-10.555 4.1953-20.684 11.66-28.148 7.4648-7.4648 17.59-11.66 28.148-11.66h172.04c10.547 0.019531 20.652 4.2227 28.105 11.688 7.4492 7.4609 11.633 17.578 11.633 28.121v394.04c-0.019531 10.535-4.2109 20.629-11.66 28.078-7.4492 7.4453-17.543 11.641-28.078 11.66zm-172.04-458.78c-6.6328 0-12.992 2.6328-17.684 7.3242-4.6914 4.6914-7.3242 11.051-7.3242 17.684v394.04c0 6.6289 2.6367 12.98 7.3281 17.66 4.6914 4.6797 11.055 7.2969 17.68 7.2773h172.04c6.6133 0 12.957-2.6289 17.633-7.3047 4.6797-4.6758 7.3047-11.02 7.3047-17.633v-394.04c0.019531-6.625-2.5977-12.988-7.2773-17.68-4.6797-4.6914-11.031-7.3281-17.66-7.3281z" fill="#1988a1"/>
        </g>
        <g clip-path="url(#a)">
         <path d="m401.9 168.81h-96.195c-5.2852 0-10.172-2.8203-12.816-7.3984s-2.6445-10.219 0-14.801c2.6445-4.5781 7.5312-7.3984 12.816-7.3984h96.195c5.2891 0 10.176 2.8203 12.82 7.3984 2.6406 4.582 2.6406 10.223 0 14.801-2.6445 4.5781-7.5312 7.3984-12.82 7.3984z" fill="#1988a1"/>
        </g>
        <path d="m435.72 479.6h-163.83c-5.75 0-11.266-2.2852-15.328-6.3516-4.0664-4.0664-6.3516-9.5781-6.3516-15.328v-134.23c0-5.75 2.2852-11.262 6.3516-15.328 4.0625-4.0664 9.5781-6.3516 15.328-6.3516h56.016c6.8711 0 13.457 2.7305 18.312 7.5859 4.8594 4.8555 7.5859 11.445 7.5859 18.312 0 6.1328 4.9727 11.102 11.102 11.102h70.816c5.75 0 11.262 2.2852 15.328 6.3477 4.0664 4.0664 6.3516 9.582 6.3516 15.332v97.234c0 5.75-2.2852 11.262-6.3516 15.328s-9.5781 6.3516-15.328 6.3516zm-163.83-162.79c-3.8008 0-6.8789 3.082-6.8789 6.8789v134.23c0 3.7969 3.0781 6.8789 6.8789 6.8789h163.83c3.8008 0 6.8789-3.082 6.8789-6.8789v-97.234c0-3.8008-3.0781-6.8828-6.8789-6.8828h-70.816c-6.8711 0-13.457-2.7266-18.312-7.5859-4.8594-4.8555-7.5859-11.441-7.5859-18.312 0-6.1289-4.9688-11.098-11.102-11.098z" fill="#1988a1"/>
        <path d="m442.6 350.1c-1.7344 0.007813-3.2422-1.1914-3.625-2.8867l-3.7734-16.055c-1.5625-2.0625-4-3.2695-6.5859-3.2578h-82.211c-2.043 0-3.6992-1.6562-3.6992-3.6992s1.6562-3.6992 3.6992-3.6992h82.359c5.2695-0.003906 10.188 2.6367 13.098 7.0312l0.51953 1.2578 3.8477 16.797h-0.003906c0.22266 0.96094 0.050782 1.9727-0.48047 2.8047-0.52734 0.83203-1.3672 1.4219-2.3281 1.6328z" fill="#1988a1"/>
        <path d="m409.3 390.8h-103.6c-2.043 0-3.6992-1.6562-3.6992-3.6992 0-2.043 1.6562-3.6992 3.6992-3.6992h103.6c2.043 0 3.6992 1.6562 3.6992 3.6992 0 2.043-1.6562 3.6992-3.6992 3.6992z" fill="#1988a1"/>
        <path d="m364.9 413h-59.199c-2.043 0-3.6992-1.6562-3.6992-3.6992s1.6562-3.6992 3.6992-3.6992h59.199c2.043 0 3.6992 1.6562 3.6992 3.6992s-1.6562 3.6992-3.6992 3.6992z" fill="#1988a1"/>
        <path d="m364.9 435.2h-59.199c-2.043 0-3.6992-1.6562-3.6992-3.6992s1.6562-3.6992 3.6992-3.6992h59.199c2.043 0 3.6992 1.6562 3.6992 3.6992s-1.6562 3.6992-3.6992 3.6992z" fill="#1988a1"/>
    </svg>