<svg width="49" height="68" viewBox="0 0 49 68" fill="none" xmlns="http://www.w3.org/2000/svg">
<path d="M47.3809 32.1103L4.00686 0.616162C3.65899 0.361159 3.24714 0.207765 2.81721 0.173074C2.38728 0.138383 1.95617 0.223754 1.57191 0.419681C1.18765 0.615607 0.865344 0.914389 0.640912 1.28273C0.41648 1.65106 0.298738 2.07449 0.300808 2.50581V65.4941C0.300808 67.413 2.46877 68.497 4.00686 67.3837L47.3809 35.8896C47.6803 35.6738 47.9242 35.39 48.0924 35.0614C48.2607 34.7329 48.3484 34.369 48.3484 33.9999C48.3484 33.6308 48.2607 33.267 48.0924 32.9385C47.9242 32.6099 47.6803 32.3261 47.3809 32.1103ZM9.64651 51.7392V16.2607L34.0655 33.9999L9.64651 51.7392Z" fill="white"/>
</svg>
