<svg width="218" height="218" viewBox="0 0 218 218" fill="none" xmlns="http://www.w3.org/2000/svg">
<path d="M109 0.015625C48.8242 0.015625 0.015625 48.8242 0.015625 109C0.015625 169.176 48.8242 217.984 109 217.984C169.176 217.984 217.984 169.176 217.984 109C217.984 48.8242 169.176 0.015625 109 0.015625ZM157.076 110.816L93.0918 157.369C92.741 157.621 92.3275 157.772 91.8968 157.804C91.4661 157.836 91.0347 157.749 90.6502 157.553C90.2657 157.356 89.9429 157.057 89.7172 156.689C89.4915 156.32 89.3718 155.897 89.3711 155.465V62.418C89.3697 61.9851 89.4881 61.5604 89.7133 61.1908C89.9386 60.8212 90.2617 60.5211 90.647 60.3239C91.0323 60.1267 91.4647 60.0401 91.8962 60.0736C92.3277 60.1071 92.7416 60.2594 93.0918 60.5137L157.076 107.037C157.378 107.251 157.625 107.534 157.795 107.863C157.965 108.192 158.054 108.557 158.054 108.927C158.054 109.297 157.965 109.662 157.795 109.991C157.625 110.319 157.378 110.603 157.076 110.816Z" fill="#131E47"/>
</svg>
