<svg width="49" height="40" viewBox="0 0 49 40" fill="none" xmlns="http://www.w3.org/2000/svg">
<path d="M49 4.87072C47.1651 5.6835 45.2189 6.217 43.226 6.45349C45.3018 5.20948 46.8957 3.23952 47.6462 0.892346C45.6729 2.06323 43.5139 2.88819 41.2626 3.33158C39.4287 1.37809 36.8162 0.157227 33.9247 0.157227C28.3727 0.157227 23.8714 4.6579 23.8714 10.2089C23.8714 10.9968 23.9604 11.7639 24.1317 12.4998C15.7769 12.0805 8.36943 8.07876 3.41105 1.99723C2.54589 3.48182 2.05015 5.20871 2.05015 7.05062C2.05015 10.5381 3.82506 13.6146 6.52236 15.4173C4.92593 15.3673 3.36463 14.9362 1.9688 14.1599C1.96823 14.202 1.96823 14.2441 1.96823 14.2864C1.96823 19.1567 5.43345 23.2194 10.0322 24.1429C8.55181 24.5454 6.99902 24.6044 5.4924 24.3151C6.77157 28.3086 10.4843 31.2146 14.8832 31.296C11.4426 33.9919 7.10787 35.5989 2.39813 35.5989C1.58657 35.5989 0.786488 35.5513 0 35.4585C4.44886 38.3105 9.73301 39.9746 15.4101 39.9746C33.9013 39.9746 44.0127 24.6577 44.0127 11.3746C44.0127 10.9387 44.0032 10.5052 43.9836 10.0742C45.9517 8.65155 47.6504 6.8895 49 4.87072Z" fill="#55ACEE"/>
</svg>
