<svg width="4em" version="1.1" viewBox="0 0 752 752" xmlns="http://www.w3.org/2000/svg">
        <g>
         <rect width="752" height="752" fill="#ead5ff"/>
         <path d="m588.42 307.53h-97.848c-5.7344-88.16-79.258-158.14-168.84-158.14-93.324 0-169.25 75.922-169.25 169.25 0 86.449 66.441 159.49 151.95 168.22v104.67c0 6.1289 4.9648 11.098 11.098 11.098h272.89c6.1289 0 11.098-4.9727 11.098-11.098l0.003906-272.89c0-6.1367-4.9727-11.102-11.098-11.102zm-413.73 11.102c0-81.086 65.969-147.05 147.05-147.05 77.336 0 140.77 60.047 146.48 135.95l-152.68-0.003906c-6.1328 0-11.098 4.9648-11.098 11.098v145.88c-73.184-8.625-129.75-71.523-129.75-145.88zm402.63 261.79h-250.69v-250.69h250.69z" fill="#ad5bff"/>
        </g>
       </svg>